<?xml version="1.0" encoding="UTF-8" standalone="no"?>
<svg
   id="Layer_2"
   data-name="Layer 2"
   viewBox="0 0 96.000001 39"
   version="1.1"
   sodipodi:docname="VIZOO_Logo_resized.svg"
   inkscape:version="1.1.2 (b8e25be833, 2022-02-05)"
   width="96"
   height="39"
   xmlns:inkscape="http://www.inkscape.org/namespaces/inkscape"
   xmlns:sodipodi="http://sodipodi.sourceforge.net/DTD/sodipodi-0.dtd"
   xmlns="http://www.w3.org/2000/svg"
   xmlns:svg="http://www.w3.org/2000/svg">
  <sodipodi:namedview
     id="namedview17"
     pagecolor="#ffffff"
     bordercolor="#666666"
     borderopacity="1.0"
     inkscape:pageshadow="2"
     inkscape:pageopacity="0.0"
     inkscape:pagecheckerboard="0"
     showgrid="false"
     inkscape:zoom="6.927629"
     inkscape:cx="28.653382"
     inkscape:cy="31.323848"
     inkscape:window-width="1920"
     inkscape:window-height="1017"
     inkscape:window-x="-8"
     inkscape:window-y="-8"
     inkscape:window-maximized="1"
     inkscape:current-layer="Layer_2"
     height="39px" />
  <defs
     id="defs4">
    <style
       id="style2">
      .cls-1 {
        fill: #00bfbf;
      }
    </style>
  </defs>
  <path
     class="cls-1"
     d="M 92.675266,0.27318691 H 80.108061 c -1.836271,0 -3.324734,1.48874079 -3.324734,3.32501179 V 35.402079 c 0,1.835993 1.488463,3.324734 3.324734,3.324734 H 92.675266 C 94.511537,38.726813 96,37.238072 96,35.402079 V 3.5981987 C 96,1.7619277 94.511537,0.27318691 92.675266,0.27318691 Z M 91.217917,32.682398 c 0,0.667002 -0.540603,1.207605 -1.207605,1.207605 h -7.237297 c -0.667003,0 -1.207605,-0.540603 -1.207605,-1.207605 V 6.3176021 c 0,-0.6670025 0.540602,-1.2076051 1.207605,-1.2076051 h 7.237297 c 0.667002,0 1.207605,0.5406026 1.207605,1.2076051 z"
     id="path6"
     style="stroke-width:0.0277802" />
  <path
     class="cls-1"
     d="M 69.250449,0.27318691 H 56.683243 c -1.836271,0 -3.324734,1.48874079 -3.324734,3.32501179 V 35.402079 c 0,1.835993 1.488463,3.324734 3.324734,3.324734 h 12.567206 c 1.836271,0 3.324733,-1.488741 3.324733,-3.324734 V 3.5981987 c 0,-1.836271 -1.488462,-3.32501179 -3.324733,-3.32501179 z M 67.793099,32.682398 c 0,0.667002 -0.540602,1.207605 -1.207605,1.207605 h -7.237297 c -0.667002,0 -1.207605,-0.540603 -1.207605,-1.207605 V 6.3176021 c 0,-0.6670025 0.540603,-1.2076051 1.207605,-1.2076051 h 7.237297 c 0.667003,0 1.207605,0.5406026 1.207605,1.2076051 z"
     id="path8"
     style="stroke-width:0.0277802" />
  <path
     class="cls-1"
     d="m 22.263302,0.27582622 h 0.766177 c 2.224361,0 4.030074,1.80599058 4.030074,4.03007318 V 38.724174 h -0.932304 c -2.132685,0 -3.864225,-1.731539 -3.864225,-3.864225 v -34.58412278 0 z"
     id="path10"
     style="stroke-width:0.0277802" />
  <path
     class="cls-1"
     d="M 30.880163,4.4172977 V 5.1065244 H 43.978526 L 30.936279,34.61076 c -0.856186,1.936835 0.561993,4.114247 2.679678,4.114247 h 11.494334 c 2.226027,0 4.030629,-1.804602 4.030629,-4.030629 v -0.80757 L 36.50093,33.887908 49.647908,4.1856108 C 50.462424,2.3451728 49.114806,0.27499253 47.102131,0.27499253 H 35.022468 c -2.287699,0 -4.142305,1.85460597 -4.142305,4.14230517 z"
     id="path12"
     style="stroke-width:0.0277802" />
  <path
     class="cls-1"
     d="M 18.50853,4.5340787 13.106393,35.507886 c -0.747565,4.286763 -6.9011561,4.286763 -7.648999,0 L 0.05497909,4.5340787 C -0.33255465,2.311663 1.3778721,0.27704137 3.6339019,0.27704137 h 0.7622886 l 4.8840363,28.63499263 0.00167,0.0092 0.00167,-0.0092 4.8837522,-28.63499263 h 0.762289 c 2.256029,0 3.966456,2.03462163 3.578922,4.25703733 z"
     id="path14"
     style="stroke-width:0.0277802" />
</svg>
